<svg xmlns="http://www.w3.org/2000/svg" width="64" height="64" viewBox="0 0 64 64">
  <rect width="64" height="64" rx="14" fill="#171717"/>
  <g fill="#ffffff">
  <path transform="translate(10.895 42.993) scale(0.031500 -0.0315)" d="M14 60L65 60L285 698L410 698L630 60L681 60L681 0L404 0L404 60L487 60L435 217L194 217L142 60L225 60L225 0L14 0ZM212 280L417 280L317 590L312 590Z"/>
  <path transform="translate(32.157 42.993) scale(0.031500 -0.0315)" d="M45 60L116 60L116 638L45 638L45 698L413 698Q519 698 572 650Q625 602 625 508Q625 414 568 361.5Q511 309 406 309L256 309L256 60L351 60L351 0L45 0ZM256 375L372 375Q424 375 452.5 402Q481 429 481 479L481 529Q481 579 452.5 606Q424 633 372 633L256 633Z"/>
  </g>
</svg>
